<?xml version="1.0" encoding="UTF-8" standalone="no"?>
<svg
   xmlns:dc="http://purl.org/dc/elements/1.1/"
   xmlns:cc="http://creativecommons.org/ns#"
   xmlns:rdf="http://www.w3.org/1999/02/22-rdf-syntax-ns#"
   xmlns:svg="http://www.w3.org/2000/svg"
   xmlns="http://www.w3.org/2000/svg"
   xmlns:sodipodi="http://sodipodi.sourceforge.net/DTD/sodipodi-0.dtd"
   xmlns:inkscape="http://www.inkscape.org/namespaces/inkscape"
   width="210mm"
   height="297mm"
   viewBox="0 0 210 297"
   version="1.1"
   id="svg8"
   inkscape:version="1.0.1 (3bc2e813f5, 2020-09-07, custom)"
   sodipodi:docname="font_diagram.svg">
  <defs
     id="defs2" />
  <sodipodi:namedview
     id="base"
     pagecolor="#ffffff"
     bordercolor="#666666"
     borderopacity="1.0"
     inkscape:pageopacity="0.0"
     inkscape:pageshadow="2"
     inkscape:zoom="0.5"
     inkscape:cx="700.35822"
     inkscape:cy="651.45873"
     inkscape:document-units="mm"
     inkscape:current-layer="layer1"
     inkscape:document-rotation="0"
     showgrid="false"
     showguides="true"
     showborder="false"
     inkscape:window-width="1920"
     inkscape:window-height="1023"
     inkscape:window-x="0"
     inkscape:window-y="27"
     inkscape:window-maximized="1" />
  <metadata
     id="metadata5">
    <rdf:RDF>
      <cc:Work
         rdf:about="">
        <dc:format>image/svg+xml</dc:format>
        <dc:type
           rdf:resource="http://purl.org/dc/dcmitype/StillImage" />
        <dc:title />
      </cc:Work>
    </rdf:RDF>
  </metadata>
  <g
     inkscape:label="Layer 1"
     inkscape:groupmode="layer"
     id="layer1">
    <path
       id="rect836"
       style="fill:#000000;stroke:#000000;stroke-width:1.32292;stroke-miterlimit:4;stroke-dasharray:none;stroke-linejoin:round"
       d="m -62.893446,70.966939 h 28.407721 V 99.37466 h -28.407721 z"
       inkscape:export-xdpi="57.272118"
       inkscape:export-ydpi="57.272118" />
    <path
       id="rect838"
       style="fill:#000000;stroke:#000000;stroke-width:1.32292;stroke-linejoin:round;stroke-miterlimit:4;stroke-dasharray:none"
       d="M -26.162791,70.966939 H 2.2449302 v 28.40772 H -26.162791 Z"
       inkscape:export-xdpi="57.272118"
       inkscape:export-ydpi="57.272118" />
    <path
       id="rect846"
       style="fill:#000000;stroke:#000000;stroke-width:1.32292;stroke-miterlimit:4;stroke-dasharray:none;stroke-linejoin:round"
       d="M 47.298524,70.966939 H 75.706245 V 99.37466 H 47.298524 Z"
       inkscape:export-xdpi="57.272118"
       inkscape:export-ydpi="57.272118" />
    <path
       id="rect848"
       style="fill:none;stroke:#000000;stroke-width:1.32292;stroke-linejoin:round;stroke-miterlimit:4;stroke-dasharray:none"
       d="m 10.567866,70.966939 h 28.407721 v 28.40772 H 10.567866 Z"
       inkscape:export-xdpi="57.272118"
       inkscape:export-ydpi="57.272118" />
    <path
       id="rect852"
       style="fill:#000000;stroke:#000000;stroke-width:1.32292;stroke-miterlimit:4;stroke-dasharray:none;stroke-linejoin:round"
       d="M 84.029183,70.966939 H 112.43691 V 99.37466 H 84.029183 Z"
       inkscape:export-xdpi="57.272118"
       inkscape:export-ydpi="57.272118" />
    <path
       id="rect854"
       style="fill:#000000;stroke:#000000;stroke-width:1.32292;stroke-miterlimit:4;stroke-dasharray:none;stroke-linejoin:round"
       d="m 120.75985,70.966939 h 28.40772 V 99.37466 h -28.40772 z"
       inkscape:export-xdpi="57.272118"
       inkscape:export-ydpi="57.272118" />
    <path
       id="rect860"
       style="fill:#000000;stroke:#000000;stroke-width:1.32292;stroke-miterlimit:4;stroke-dasharray:none;stroke-linejoin:round"
       d="m 157.4905,70.966939 h 28.40772 V 99.37466 H 157.4905 Z"
       inkscape:export-xdpi="57.272118"
       inkscape:export-ydpi="57.272118" />
    <path
       id="rect862"
       style="fill:#000000;stroke:#000000;stroke-width:1.32292;stroke-linejoin:round;stroke-miterlimit:4;stroke-dasharray:none"
       d="m 194.22116,70.966937 h 28.40772 v 28.407725 h -28.40772 z"
       inkscape:export-xdpi="57.272118"
       inkscape:export-ydpi="57.272118" />
    <path
       id="path884"
       style="fill:#000000;stroke:#000000;stroke-width:1.32292;stroke-miterlimit:4;stroke-dasharray:none;stroke-linejoin:round"
       d="m -62.893446,107.27692 h 28.407721 v 28.40772 h -28.407721 z"
       inkscape:export-xdpi="57.272118"
       inkscape:export-ydpi="57.272118" />
    <path
       id="path886"
       style="fill:none;stroke:#000000;stroke-width:1.32292;stroke-miterlimit:4;stroke-dasharray:none;stroke-linejoin:round"
       d="M -26.162791,107.27692 H 2.2449302 v 28.40772 H -26.162791 Z"
       inkscape:export-xdpi="57.272118"
       inkscape:export-ydpi="57.272118" />
    <path
       id="path888"
       style="fill:#000000;stroke:#000000;stroke-width:1.32292;stroke-miterlimit:4;stroke-dasharray:none;stroke-linejoin:round"
       d="m 47.298524,107.27692 h 28.407721 v 28.40772 H 47.298524 Z"
       inkscape:export-xdpi="57.272118"
       inkscape:export-ydpi="57.272118" />
    <path
       id="path890"
       style="fill:none;stroke:#000000;stroke-width:1.32292;stroke-miterlimit:4;stroke-dasharray:none;stroke-linejoin:round"
       d="m 10.567866,107.27692 h 28.407721 v 28.40772 H 10.567866 Z"
       inkscape:export-xdpi="57.272118"
       inkscape:export-ydpi="57.272118" />
    <path
       id="path892"
       style="fill:#000000;stroke:#000000;stroke-width:1.32292;stroke-miterlimit:4;stroke-dasharray:none;stroke-linejoin:round"
       d="m 84.029183,107.27692 h 28.407727 v 28.40772 H 84.029183 Z"
       inkscape:export-xdpi="57.272118"
       inkscape:export-ydpi="57.272118" />
    <path
       id="path894"
       style="fill:#000000;stroke:#000000;stroke-width:1.32292;stroke-miterlimit:4;stroke-dasharray:none;stroke-linejoin:round"
       d="m 120.75985,107.27692 h 28.40772 v 28.40772 h -28.40772 z"
       inkscape:export-xdpi="57.272118"
       inkscape:export-ydpi="57.272118" />
    <path
       id="path896"
       style="fill:#000000;stroke:#000000;stroke-width:1.32292;stroke-miterlimit:4;stroke-dasharray:none;stroke-linejoin:round"
       d="m 157.4905,107.27692 h 28.40772 v 28.40772 H 157.4905 Z"
       inkscape:export-xdpi="57.272118"
       inkscape:export-ydpi="57.272118" />
    <path
       id="path898"
       style="fill:#000000;stroke:#000000;stroke-width:1.32292;stroke-linejoin:round;stroke-miterlimit:4;stroke-dasharray:none"
       d="m 194.22116,107.27692 h 28.40772 v 28.40773 h -28.40772 z"
       inkscape:export-xdpi="57.272118"
       inkscape:export-ydpi="57.272118" />
    <path
       id="path900"
       style="fill:#000000;stroke:#000000;stroke-width:1.32292;stroke-linejoin:round;stroke-miterlimit:4;stroke-dasharray:none"
       d="m -62.893446,143.58689 h 28.407721 v 28.40772 h -28.407721 z"
       inkscape:export-xdpi="57.272118"
       inkscape:export-ydpi="57.272118" />
    <path
       id="path902"
       style="fill:#000000;stroke:#000000;stroke-width:1.32292;stroke-linejoin:round;stroke-miterlimit:4;stroke-dasharray:none"
       d="M -26.162791,143.58689 H 2.2449302 v 28.40772 H -26.162791 Z"
       inkscape:export-xdpi="57.272118"
       inkscape:export-ydpi="57.272118" />
    <path
       id="path904"
       style="fill:#000000;stroke:#000000;stroke-width:1.32292;stroke-linejoin:round;stroke-miterlimit:4;stroke-dasharray:none"
       d="m 47.298524,143.58689 h 28.407721 v 28.40772 H 47.298524 Z"
       inkscape:export-xdpi="57.272118"
       inkscape:export-ydpi="57.272118" />
    <path
       id="path906"
       style="fill:none;stroke:#000000;stroke-width:1.32292;stroke-linejoin:round;stroke-miterlimit:4;stroke-dasharray:none"
       d="m 10.567866,143.58689 h 28.407721 v 28.40772 H 10.567866 Z"
       inkscape:export-xdpi="57.272118"
       inkscape:export-ydpi="57.272118" />
    <path
       id="path908"
       style="fill:#000000;stroke:#000000;stroke-width:1.32292;stroke-linejoin:round;stroke-miterlimit:4;stroke-dasharray:none"
       d="m 84.029183,143.58689 h 28.407727 v 28.40772 H 84.029183 Z"
       inkscape:export-xdpi="57.272118"
       inkscape:export-ydpi="57.272118" />
    <path
       id="path910"
       style="fill:#000000;stroke:#000000;stroke-width:1.32292;stroke-linejoin:round;stroke-miterlimit:4;stroke-dasharray:none"
       d="m 120.75985,143.58689 h 28.40772 v 28.40772 h -28.40772 z"
       inkscape:export-xdpi="57.272118"
       inkscape:export-ydpi="57.272118" />
    <path
       id="path912"
       style="fill:#000000;stroke:#000000;stroke-width:1.32292;stroke-linejoin:round;stroke-miterlimit:4;stroke-dasharray:none"
       d="m 157.4905,143.58689 h 28.40772 v 28.40772 H 157.4905 Z"
       inkscape:export-xdpi="57.272118"
       inkscape:export-ydpi="57.272118" />
    <path
       id="path914"
       style="fill:#000000;stroke:#000000;stroke-width:1.32292;stroke-miterlimit:4;stroke-dasharray:none;stroke-linejoin:round"
       d="m 194.22116,143.58689 h 28.40772 v 28.40773 h -28.40772 z"
       inkscape:export-xdpi="57.272118"
       inkscape:export-ydpi="57.272118" />
    <path
       id="path916"
       style="fill:#000000;stroke:#000000;stroke-width:1.32292;stroke-linejoin:round;stroke-miterlimit:4;stroke-dasharray:none"
       d="m -62.893446,179.89687 h 28.407721 v 28.40772 h -28.407721 z"
       inkscape:export-xdpi="57.272118"
       inkscape:export-ydpi="57.272118" />
    <path
       id="path918"
       style="fill:#000000;stroke:#000000;stroke-width:1.32292;stroke-linejoin:round;stroke-miterlimit:4;stroke-dasharray:none"
       d="M -26.162791,179.89687 H 2.2449302 v 28.40772 H -26.162791 Z"
       inkscape:export-xdpi="57.272118"
       inkscape:export-ydpi="57.272118" />
    <path
       id="path920"
       style="fill:#000000;stroke:#000000;stroke-width:1.32292;stroke-linejoin:round;stroke-miterlimit:4;stroke-dasharray:none"
       d="m 47.298524,179.89687 h 28.407721 v 28.40772 H 47.298524 Z"
       inkscape:export-xdpi="57.272118"
       inkscape:export-ydpi="57.272118" />
    <path
       id="path922"
       style="fill:none;stroke:#000000;stroke-width:1.32292;stroke-linejoin:round;stroke-miterlimit:4;stroke-dasharray:none"
       d="m 10.567866,179.89687 h 28.407721 v 28.40772 H 10.567866 Z"
       inkscape:export-xdpi="57.272118"
       inkscape:export-ydpi="57.272118" />
    <path
       id="path924"
       style="fill:#000000;stroke:#000000;stroke-width:1.32292;stroke-linejoin:round;stroke-miterlimit:4;stroke-dasharray:none"
       d="m 84.029183,179.89687 h 28.407727 v 28.40772 H 84.029183 Z"
       inkscape:export-xdpi="57.272118"
       inkscape:export-ydpi="57.272118" />
    <path
       id="path926"
       style="fill:#000000;stroke:#000000;stroke-width:1.32292;stroke-linejoin:round;stroke-miterlimit:4;stroke-dasharray:none"
       d="m 120.75985,179.89687 h 28.40772 v 28.40772 h -28.40772 z"
       inkscape:export-xdpi="57.272118"
       inkscape:export-ydpi="57.272118" />
    <path
       id="path928"
       style="fill:#000000;stroke:#000000;stroke-width:1.32292;stroke-linejoin:round;stroke-miterlimit:4;stroke-dasharray:none"
       d="m 157.4905,179.89687 h 28.40772 v 28.40772 H 157.4905 Z"
       inkscape:export-xdpi="57.272118"
       inkscape:export-ydpi="57.272118" />
    <path
       id="path930"
       style="fill:#000000;stroke:#000000;stroke-width:1.32292;stroke-miterlimit:4;stroke-dasharray:none;stroke-linejoin:round"
       d="m 194.22116,179.89687 h 28.40772 v 28.40773 h -28.40772 z"
       inkscape:export-xdpi="57.272118"
       inkscape:export-ydpi="57.272118" />
    <path
       id="path932"
       style="fill:#000000;stroke:#000000;stroke-width:1.32292;stroke-linejoin:round;stroke-miterlimit:4;stroke-dasharray:none"
       d="m -62.893446,216.20685 h 28.407721 v 28.40772 h -28.407721 z"
       inkscape:export-xdpi="57.272118"
       inkscape:export-ydpi="57.272118" />
    <path
       id="path934"
       style="fill:none;stroke:#000000;stroke-width:1.32292;stroke-linejoin:round;stroke-miterlimit:4;stroke-dasharray:none"
       d="M -26.162791,216.20685 H 2.2449302 v 28.40772 H -26.162791 Z"
       inkscape:export-xdpi="57.272118"
       inkscape:export-ydpi="57.272118" />
    <path
       id="path936"
       style="fill:none;stroke:#000000;stroke-width:1.32292;stroke-linejoin:round;stroke-miterlimit:4;stroke-dasharray:none"
       d="m 47.298524,216.20685 h 28.407721 v 28.40772 H 47.298524 Z"
       inkscape:export-xdpi="57.272118"
       inkscape:export-ydpi="57.272118" />
    <path
       id="path938"
       style="fill:none;stroke:#000000;stroke-width:1.32292;stroke-linejoin:round;stroke-miterlimit:4;stroke-dasharray:none"
       d="m 10.567866,216.20685 h 28.407721 v 28.40772 H 10.567866 Z"
       inkscape:export-xdpi="57.272118"
       inkscape:export-ydpi="57.272118" />
    <path
       id="path940"
       style="fill:#000000;stroke:#000000;stroke-width:1.32292;stroke-linejoin:round;stroke-miterlimit:4;stroke-dasharray:none"
       d="m 84.029183,216.20685 h 28.407727 v 28.40772 H 84.029183 Z"
       inkscape:export-xdpi="57.272118"
       inkscape:export-ydpi="57.272118" />
    <path
       id="path942"
       style="fill:#000000;stroke:#000000;stroke-width:1.32292;stroke-linejoin:round;stroke-miterlimit:4;stroke-dasharray:none"
       d="m 120.75985,216.20685 h 28.40772 v 28.40772 h -28.40772 z"
       inkscape:export-xdpi="57.272118"
       inkscape:export-ydpi="57.272118" />
    <path
       id="path944"
       style="fill:#000000;stroke:#000000;stroke-width:1.32292;stroke-linejoin:round;stroke-miterlimit:4;stroke-dasharray:none"
       d="m 157.4905,216.20685 h 28.40772 v 28.40772 H 157.4905 Z"
       inkscape:export-xdpi="57.272118"
       inkscape:export-ydpi="57.272118" />
    <path
       id="path946"
       style="fill:#000000;stroke:#000000;stroke-width:1.32292;stroke-miterlimit:4;stroke-dasharray:none;stroke-linejoin:round"
       d="m 194.22116,216.20685 h 28.40772 v 28.40773 h -28.40772 z"
       inkscape:export-xdpi="57.272118"
       inkscape:export-ydpi="57.272118" />
    <g
       aria-label="00100000"
       id="text959"
       style="font-style:normal;font-weight:normal;font-size:10.5833px;line-height:1.25;font-family:sans-serif;fill:#000000;fill-opacity:1;stroke:none;stroke-width:0.116178"
       transform="matrix(2.2773949,0,0,2.2773949,-346.10519,-91.473614)"
       inkscape:export-xdpi="57.272118"
       inkscape:export-ydpi="57.272118">
      <path
         d="m 268.83699,74.388737 q -0.80614,0 -1.21439,0.795815 -0.40307,0.790647 -0.40307,2.382276 0,1.586461 0.40307,2.382276 0.40825,0.790647 1.21439,0.790647 0.81132,0 1.2144,-0.790647 0.40824,-0.795815 0.40824,-2.382276 0,-1.591629 -0.40824,-2.382276 -0.40308,-0.795815 -1.2144,-0.795815 z m 0,-0.82682 q 1.29708,0 1.97921,1.028358 0.68729,1.02319 0.68729,2.976553 0,1.948195 -0.68729,2.976553 -0.68213,1.02319 -1.97921,1.02319 -1.29707,0 -1.98436,-1.02319 -0.68213,-1.028358 -0.68213,-2.976553 0,-1.953363 0.68213,-2.976553 0.68729,-1.028358 1.98436,-1.028358 z"
         style="stroke-width:0.116178"
         id="path977" />
      <path
         d="m 275.57041,74.388737 q -0.80615,0 -1.21439,0.795815 -0.40307,0.790647 -0.40307,2.382276 0,1.586461 0.40307,2.382276 0.40824,0.790647 1.21439,0.790647 0.81132,0 1.21439,-0.790647 0.40825,-0.795815 0.40825,-2.382276 0,-1.591629 -0.40825,-2.382276 -0.40307,-0.795815 -1.21439,-0.795815 z m 0,-0.82682 q 1.29708,0 1.9792,1.028358 0.6873,1.02319 0.6873,2.976553 0,1.948195 -0.6873,2.976553 -0.68212,1.02319 -1.9792,1.02319 -1.29707,0 -1.98437,-1.02319 -0.68212,-1.028358 -0.68212,-2.976553 0,-1.953363 0.68212,-2.976553 0.6873,-1.028358 1.98437,-1.028358 z"
         style="stroke-width:0.116178"
         id="path979" />
      <path
         d="m 280.25228,80.538213 h 1.70532 v -5.885927 l -1.85518,0.37207 v -0.950844 l 1.84484,-0.372069 h 1.04386 v 6.83677 h 1.70532 v 0.878497 h -4.44416 z"
         style="stroke-width:0.116178"
         id="path981" />
      <path
         d="m 289.03725,74.388737 q -0.80615,0 -1.21439,0.795815 -0.40308,0.790647 -0.40308,2.382276 0,1.586461 0.40308,2.382276 0.40824,0.790647 1.21439,0.790647 0.81131,0 1.21439,-0.790647 0.40824,-0.795815 0.40824,-2.382276 0,-1.591629 -0.40824,-2.382276 -0.40308,-0.795815 -1.21439,-0.795815 z m 0,-0.82682 q 1.29707,0 1.9792,1.028358 0.68729,1.02319 0.68729,2.976553 0,1.948195 -0.68729,2.976553 -0.68213,1.02319 -1.9792,1.02319 -1.29708,0 -1.98437,-1.02319 -0.68213,-1.028358 -0.68213,-2.976553 0,-1.953363 0.68213,-2.976553 0.68729,-1.028358 1.98437,-1.028358 z"
         style="stroke-width:0.116178"
         id="path983" />
      <path
         d="m 295.77066,74.388737 q -0.80614,0 -1.21439,0.795815 -0.40307,0.790647 -0.40307,2.382276 0,1.586461 0.40307,2.382276 0.40825,0.790647 1.21439,0.790647 0.81132,0 1.2144,-0.790647 0.40824,-0.795815 0.40824,-2.382276 0,-1.591629 -0.40824,-2.382276 -0.40308,-0.795815 -1.2144,-0.795815 z m 0,-0.82682 q 1.29708,0 1.97921,1.028358 0.68729,1.02319 0.68729,2.976553 0,1.948195 -0.68729,2.976553 -0.68213,1.02319 -1.97921,1.02319 -1.29707,0 -1.98436,-1.02319 -0.68213,-1.028358 -0.68213,-2.976553 0,-1.953363 0.68213,-2.976553 0.68729,-1.028358 1.98436,-1.028358 z"
         style="stroke-width:0.116178"
         id="path985" />
      <path
         d="m 302.50408,74.388737 q -0.80615,0 -1.21439,0.795815 -0.40307,0.790647 -0.40307,2.382276 0,1.586461 0.40307,2.382276 0.40824,0.790647 1.21439,0.790647 0.81132,0 1.21439,-0.790647 0.40825,-0.795815 0.40825,-2.382276 0,-1.591629 -0.40825,-2.382276 -0.40307,-0.795815 -1.21439,-0.795815 z m 0,-0.82682 q 1.29708,0 1.9792,1.028358 0.6873,1.02319 0.6873,2.976553 0,1.948195 -0.6873,2.976553 -0.68212,1.02319 -1.9792,1.02319 -1.29707,0 -1.98437,-1.02319 -0.68212,-1.028358 -0.68212,-2.976553 0,-1.953363 0.68212,-2.976553 0.6873,-1.028358 1.98437,-1.028358 z"
         style="stroke-width:0.116178"
         id="path987" />
      <path
         d="m 309.2375,74.388737 q -0.80615,0 -1.21439,0.795815 -0.40308,0.790647 -0.40308,2.382276 0,1.586461 0.40308,2.382276 0.40824,0.790647 1.21439,0.790647 0.81132,0 1.21439,-0.790647 0.40824,-0.795815 0.40824,-2.382276 0,-1.591629 -0.40824,-2.382276 -0.40307,-0.795815 -1.21439,-0.795815 z m 0,-0.82682 q 1.29707,0 1.9792,1.028358 0.6873,1.02319 0.6873,2.976553 0,1.948195 -0.6873,2.976553 -0.68213,1.02319 -1.9792,1.02319 -1.29707,0 -1.98437,-1.02319 -0.68213,-1.028358 -0.68213,-2.976553 0,-1.953363 0.68213,-2.976553 0.6873,-1.028358 1.98437,-1.028358 z"
         style="stroke-width:0.116178"
         id="path989" />
      <path
         d="m 315.97092,74.388737 q -0.80615,0 -1.21439,0.795815 -0.40308,0.790647 -0.40308,2.382276 0,1.586461 0.40308,2.382276 0.40824,0.790647 1.21439,0.790647 0.81131,0 1.21439,-0.790647 0.40824,-0.795815 0.40824,-2.382276 0,-1.591629 -0.40824,-2.382276 -0.40308,-0.795815 -1.21439,-0.795815 z m 0,-0.82682 q 1.29707,0 1.9792,1.028358 0.68729,1.02319 0.68729,2.976553 0,1.948195 -0.68729,2.976553 -0.68213,1.02319 -1.9792,1.02319 -1.29708,0 -1.98437,-1.02319 -0.68213,-1.028358 -0.68213,-2.976553 0,-1.953363 0.68213,-2.976553 0.68729,-1.028358 1.98437,-1.028358 z"
         style="stroke-width:0.116178"
         id="path991" />
    </g>
    <g
       aria-label="01100000"
       id="text963"
       style="font-style:normal;font-weight:normal;font-size:10.5833px;line-height:1.25;font-family:sans-serif;fill:#000000;fill-opacity:1;stroke:none;stroke-width:0.116178"
       transform="matrix(2.2773949,0,0,2.2773949,-352.97636,-100.69268)"
       inkscape:export-xdpi="57.272118"
       inkscape:export-ydpi="57.272118">
      <path
         d="m 271.85412,94.38046 q -0.80615,0 -1.2144,0.795814 -0.40307,0.790647 -0.40307,2.382276 0,1.586461 0.40307,2.382276 0.40825,0.790644 1.2144,0.790644 0.81131,0 1.21439,-0.790644 0.40824,-0.795815 0.40824,-2.382276 0,-1.591629 -0.40824,-2.382276 -0.40308,-0.795814 -1.21439,-0.795814 z m 0,-0.826821 q 1.29707,0 1.9792,1.028358 0.68729,1.02319 0.68729,2.976553 0,1.948195 -0.68729,2.97655 -0.68213,1.02319 -1.9792,1.02319 -1.29708,0 -1.98437,-1.02319 -0.68213,-1.028355 -0.68213,-2.97655 0,-1.953363 0.68213,-2.976553 0.68729,-1.028358 1.98437,-1.028358 z"
         style="stroke-width:0.116178"
         id="path994" />
      <path
         d="m 276.53598,100.52994 h 1.70532 v -5.885931 l -1.85518,0.372069 v -0.950844 l 1.84485,-0.372069 h 1.04386 v 6.836775 h 1.70531 v 0.87849 h -4.44416 z"
         style="stroke-width:0.116178"
         id="path996" />
      <path
         d="m 283.2694,100.52994 h 1.70532 v -5.885931 l -1.85518,0.372069 v -0.950844 l 1.84484,-0.372069 h 1.04386 v 6.836775 h 1.70532 v 0.87849 h -4.44416 z"
         style="stroke-width:0.116178"
         id="path998" />
      <path
         d="m 292.05437,94.38046 q -0.80615,0 -1.21439,0.795814 -0.40308,0.790647 -0.40308,2.382276 0,1.586461 0.40308,2.382276 0.40824,0.790644 1.21439,0.790644 0.81132,0 1.21439,-0.790644 0.40824,-0.795815 0.40824,-2.382276 0,-1.591629 -0.40824,-2.382276 -0.40307,-0.795814 -1.21439,-0.795814 z m 0,-0.826821 q 1.29707,0 1.9792,1.028358 0.68729,1.02319 0.68729,2.976553 0,1.948195 -0.68729,2.97655 -0.68213,1.02319 -1.9792,1.02319 -1.29708,0 -1.98437,-1.02319 -0.68213,-1.028355 -0.68213,-2.97655 0,-1.953363 0.68213,-2.976553 0.68729,-1.028358 1.98437,-1.028358 z"
         style="stroke-width:0.116178"
         id="path1000" />
      <path
         d="m 298.78779,94.38046 q -0.80615,0 -1.2144,0.795814 -0.40307,0.790647 -0.40307,2.382276 0,1.586461 0.40307,2.382276 0.40825,0.790644 1.2144,0.790644 0.81131,0 1.21439,-0.790644 0.40824,-0.795815 0.40824,-2.382276 0,-1.591629 -0.40824,-2.382276 -0.40308,-0.795814 -1.21439,-0.795814 z m 0,-0.826821 q 1.29707,0 1.9792,1.028358 0.68729,1.02319 0.68729,2.976553 0,1.948195 -0.68729,2.97655 -0.68213,1.02319 -1.9792,1.02319 -1.29708,0 -1.98437,-1.02319 -0.68213,-1.028355 -0.68213,-2.97655 0,-1.953363 0.68213,-2.976553 0.68729,-1.028358 1.98437,-1.028358 z"
         style="stroke-width:0.116178"
         id="path1002" />
      <path
         d="m 305.5212,94.38046 q -0.80615,0 -1.21439,0.795814 -0.40307,0.790647 -0.40307,2.382276 0,1.586461 0.40307,2.382276 0.40824,0.790644 1.21439,0.790644 0.81132,0 1.2144,-0.790644 0.40824,-0.795815 0.40824,-2.382276 0,-1.591629 -0.40824,-2.382276 -0.40308,-0.795814 -1.2144,-0.795814 z m 0,-0.826821 q 1.29708,0 1.9792,1.028358 0.6873,1.02319 0.6873,2.976553 0,1.948195 -0.6873,2.97655 -0.68212,1.02319 -1.9792,1.02319 -1.29707,0 -1.98437,-1.02319 -0.68212,-1.028355 -0.68212,-2.97655 0,-1.953363 0.68212,-2.976553 0.6873,-1.028358 1.98437,-1.028358 z"
         style="stroke-width:0.116178"
         id="path1004" />
      <path
         d="m 312.25462,94.38046 q -0.80615,0 -1.21439,0.795814 -0.40308,0.790647 -0.40308,2.382276 0,1.586461 0.40308,2.382276 0.40824,0.790644 1.21439,0.790644 0.81132,0 1.21439,-0.790644 0.40825,-0.795815 0.40825,-2.382276 0,-1.591629 -0.40825,-2.382276 -0.40307,-0.795814 -1.21439,-0.795814 z m 0,-0.826821 q 1.29707,0 1.9792,1.028358 0.6873,1.02319 0.6873,2.976553 0,1.948195 -0.6873,2.97655 -0.68213,1.02319 -1.9792,1.02319 -1.29707,0 -1.98437,-1.02319 -0.68213,-1.028355 -0.68213,-2.97655 0,-1.953363 0.68213,-2.976553 0.6873,-1.028358 1.98437,-1.028358 z"
         style="stroke-width:0.116178"
         id="path1006" />
      <path
         d="m 318.98804,94.38046 q -0.80615,0 -1.21439,0.795814 -0.40308,0.790647 -0.40308,2.382276 0,1.586461 0.40308,2.382276 0.40824,0.790644 1.21439,0.790644 0.81132,0 1.21439,-0.790644 0.40824,-0.795815 0.40824,-2.382276 0,-1.591629 -0.40824,-2.382276 -0.40307,-0.795814 -1.21439,-0.795814 z m 0,-0.826821 q 1.29707,0 1.9792,1.028358 0.68729,1.02319 0.68729,2.976553 0,1.948195 -0.68729,2.97655 -0.68213,1.02319 -1.9792,1.02319 -1.29708,0 -1.98437,-1.02319 -0.68213,-1.028355 -0.68213,-2.97655 0,-1.953363 0.68213,-2.976553 0.68729,-1.028358 1.98437,-1.028358 z"
         style="stroke-width:0.116178"
         id="path1008" />
    </g>
    <g
       aria-label="00100000"
       id="text967"
       style="font-style:normal;font-weight:normal;font-size:10.5833px;line-height:1.25;font-family:sans-serif;fill:#000000;fill-opacity:1;stroke:none;stroke-width:0.116178"
       transform="matrix(2.2773949,0,0,2.2773949,-360.5946,-103.28433)"
       inkscape:export-xdpi="57.272118"
       inkscape:export-ydpi="57.272118">
      <path
         d="m 275.19927,111.46209 q -0.80615,0 -1.21439,0.79582 -0.40308,0.79065 -0.40308,2.38227 0,1.58647 0.40308,2.38228 0.40824,0.79065 1.21439,0.79065 0.81132,0 1.21439,-0.79065 0.40824,-0.79581 0.40824,-2.38228 0,-1.59162 -0.40824,-2.38227 -0.40307,-0.79582 -1.21439,-0.79582 z m 0,-0.82682 q 1.29707,0 1.9792,1.02836 0.68729,1.02319 0.68729,2.97655 0,1.9482 -0.68729,2.97656 -0.68213,1.02319 -1.9792,1.02319 -1.29708,0 -1.98437,-1.02319 -0.68213,-1.02836 -0.68213,-2.97656 0,-1.95336 0.68213,-2.97655 0.68729,-1.02836 1.98437,-1.02836 z"
         style="stroke-width:0.116178"
         id="path1011" />
      <path
         d="m 281.93269,111.46209 q -0.80615,0 -1.2144,0.79582 -0.40307,0.79065 -0.40307,2.38227 0,1.58647 0.40307,2.38228 0.40825,0.79065 1.2144,0.79065 0.81131,0 1.21439,-0.79065 0.40824,-0.79581 0.40824,-2.38228 0,-1.59162 -0.40824,-2.38227 -0.40308,-0.79582 -1.21439,-0.79582 z m 0,-0.82682 q 1.29707,0 1.9792,1.02836 0.68729,1.02319 0.68729,2.97655 0,1.9482 -0.68729,2.97656 -0.68213,1.02319 -1.9792,1.02319 -1.29708,0 -1.98437,-1.02319 -0.68213,-1.02836 -0.68213,-2.97656 0,-1.95336 0.68213,-2.97655 0.68729,-1.02836 1.98437,-1.02836 z"
         style="stroke-width:0.116178"
         id="path1013" />
      <path
         d="m 286.61456,117.61157 h 1.70531 v -5.88593 l -1.85517,0.37207 v -0.95084 l 1.84484,-0.37207 h 1.04386 v 6.83677 h 1.70532 v 0.8785 h -4.44416 z"
         style="stroke-width:0.116178"
         id="path1015" />
      <path
         d="m 295.39952,111.46209 q -0.80615,0 -1.21439,0.79582 -0.40308,0.79065 -0.40308,2.38227 0,1.58647 0.40308,2.38228 0.40824,0.79065 1.21439,0.79065 0.81132,0 1.21439,-0.79065 0.40825,-0.79581 0.40825,-2.38228 0,-1.59162 -0.40825,-2.38227 -0.40307,-0.79582 -1.21439,-0.79582 z m 0,-0.82682 q 1.29708,0 1.9792,1.02836 0.6873,1.02319 0.6873,2.97655 0,1.9482 -0.6873,2.97656 -0.68212,1.02319 -1.9792,1.02319 -1.29707,0 -1.98437,-1.02319 -0.68212,-1.02836 -0.68212,-2.97656 0,-1.95336 0.68212,-2.97655 0.6873,-1.02836 1.98437,-1.02836 z"
         style="stroke-width:0.116178"
         id="path1017" />
      <path
         d="m 302.13294,111.46209 q -0.80615,0 -1.21439,0.79582 -0.40308,0.79065 -0.40308,2.38227 0,1.58647 0.40308,2.38228 0.40824,0.79065 1.21439,0.79065 0.81132,0 1.21439,-0.79065 0.40824,-0.79581 0.40824,-2.38228 0,-1.59162 -0.40824,-2.38227 -0.40307,-0.79582 -1.21439,-0.79582 z m 0,-0.82682 q 1.29707,0 1.9792,1.02836 0.68729,1.02319 0.68729,2.97655 0,1.9482 -0.68729,2.97656 -0.68213,1.02319 -1.9792,1.02319 -1.29708,0 -1.98437,-1.02319 -0.68213,-1.02836 -0.68213,-2.97656 0,-1.95336 0.68213,-2.97655 0.68729,-1.02836 1.98437,-1.02836 z"
         style="stroke-width:0.116178"
         id="path1019" />
      <path
         d="m 308.86636,111.46209 q -0.80615,0 -1.2144,0.79582 -0.40307,0.79065 -0.40307,2.38227 0,1.58647 0.40307,2.38228 0.40825,0.79065 1.2144,0.79065 0.81131,0 1.21439,-0.79065 0.40824,-0.79581 0.40824,-2.38228 0,-1.59162 -0.40824,-2.38227 -0.40308,-0.79582 -1.21439,-0.79582 z m 0,-0.82682 q 1.29707,0 1.9792,1.02836 0.68729,1.02319 0.68729,2.97655 0,1.9482 -0.68729,2.97656 -0.68213,1.02319 -1.9792,1.02319 -1.29708,0 -1.98437,-1.02319 -0.68213,-1.02836 -0.68213,-2.97656 0,-1.95336 0.68213,-2.97655 0.68729,-1.02836 1.98437,-1.02836 z"
         style="stroke-width:0.116178"
         id="path1021" />
      <path
         d="m 315.59977,111.46209 q -0.80615,0 -1.21439,0.79582 -0.40307,0.79065 -0.40307,2.38227 0,1.58647 0.40307,2.38228 0.40824,0.79065 1.21439,0.79065 0.81132,0 1.2144,-0.79065 0.40824,-0.79581 0.40824,-2.38228 0,-1.59162 -0.40824,-2.38227 -0.40308,-0.79582 -1.2144,-0.79582 z m 0,-0.82682 q 1.29708,0 1.97921,1.02836 0.68729,1.02319 0.68729,2.97655 0,1.9482 -0.68729,2.97656 -0.68213,1.02319 -1.97921,1.02319 -1.29707,0 -1.98436,-1.02319 -0.68213,-1.02836 -0.68213,-2.97656 0,-1.95336 0.68213,-2.97655 0.68729,-1.02836 1.98436,-1.02836 z"
         style="stroke-width:0.116178"
         id="path1023" />
      <path
         d="m 322.33319,111.46209 q -0.80615,0 -1.21439,0.79582 -0.40308,0.79065 -0.40308,2.38227 0,1.58647 0.40308,2.38228 0.40824,0.79065 1.21439,0.79065 0.81132,0 1.21439,-0.79065 0.40825,-0.79581 0.40825,-2.38228 0,-1.59162 -0.40825,-2.38227 -0.40307,-0.79582 -1.21439,-0.79582 z m 0,-0.82682 q 1.29708,0 1.9792,1.02836 0.6873,1.02319 0.6873,2.97655 0,1.9482 -0.6873,2.97656 -0.68212,1.02319 -1.9792,1.02319 -1.29707,0 -1.98437,-1.02319 -0.68212,-1.02836 -0.68212,-2.97656 0,-1.95336 0.68212,-2.97655 0.6873,-1.02836 1.98437,-1.02836 z"
         style="stroke-width:0.116178"
         id="path1025" />
    </g>
    <g
       aria-label="00100000"
       id="text971"
       style="font-style:normal;font-weight:normal;font-size:10.5833px;line-height:1.25;font-family:sans-serif;fill:#000000;fill-opacity:1;stroke:none;stroke-width:0.116178"
       transform="matrix(2.2773949,0,0,2.2773949,-368.65201,-98.78244)"
       inkscape:export-xdpi="57.272118"
       inkscape:export-ydpi="57.272118">
      <path
         d="m 278.73726,125.42897 q -0.80615,0 -1.21439,0.79581 -0.40307,0.79065 -0.40307,2.38228 0,1.58646 0.40307,2.38227 0.40824,0.79065 1.21439,0.79065 0.81132,0 1.2144,-0.79065 0.40824,-0.79581 0.40824,-2.38227 0,-1.59163 -0.40824,-2.38228 -0.40308,-0.79581 -1.2144,-0.79581 z m 0,-0.82682 q 1.29708,0 1.9792,1.02835 0.6873,1.02319 0.6873,2.97656 0,1.94819 -0.6873,2.97655 -0.68212,1.02319 -1.9792,1.02319 -1.29707,0 -1.98437,-1.02319 -0.68212,-1.02836 -0.68212,-2.97655 0,-1.95337 0.68212,-2.97656 0.6873,-1.02835 1.98437,-1.02835 z"
         style="stroke-width:0.116178"
         id="path1028" />
      <path
         d="m 285.47068,125.42897 q -0.80615,0 -1.21439,0.79581 -0.40308,0.79065 -0.40308,2.38228 0,1.58646 0.40308,2.38227 0.40824,0.79065 1.21439,0.79065 0.81132,0 1.21439,-0.79065 0.40825,-0.79581 0.40825,-2.38227 0,-1.59163 -0.40825,-2.38228 -0.40307,-0.79581 -1.21439,-0.79581 z m 0,-0.82682 q 1.29708,0 1.9792,1.02835 0.6873,1.02319 0.6873,2.97656 0,1.94819 -0.6873,2.97655 -0.68212,1.02319 -1.9792,1.02319 -1.29707,0 -1.98437,-1.02319 -0.68212,-1.02836 -0.68212,-2.97655 0,-1.95337 0.68212,-2.97656 0.6873,-1.02835 1.98437,-1.02835 z"
         style="stroke-width:0.116178"
         id="path1030" />
      <path
         d="m 290.15255,131.57844 h 1.70532 v -5.88592 l -1.85518,0.37207 v -0.95085 l 1.84484,-0.37207 h 1.04386 v 6.83677 h 1.70532 v 0.8785 h -4.44416 z"
         style="stroke-width:0.116178"
         id="path1032" />
      <path
         d="m 298.93752,125.42897 q -0.80615,0 -1.2144,0.79581 -0.40307,0.79065 -0.40307,2.38228 0,1.58646 0.40307,2.38227 0.40825,0.79065 1.2144,0.79065 0.81131,0 1.21439,-0.79065 0.40824,-0.79581 0.40824,-2.38227 0,-1.59163 -0.40824,-2.38228 -0.40308,-0.79581 -1.21439,-0.79581 z m 0,-0.82682 q 1.29707,0 1.9792,1.02835 0.68729,1.02319 0.68729,2.97656 0,1.94819 -0.68729,2.97655 -0.68213,1.02319 -1.9792,1.02319 -1.29708,0 -1.98437,-1.02319 -0.68213,-1.02836 -0.68213,-2.97655 0,-1.95337 0.68213,-2.97656 0.68729,-1.02835 1.98437,-1.02835 z"
         style="stroke-width:0.116178"
         id="path1034" />
      <path
         d="m 305.67093,125.42897 q -0.80615,0 -1.21439,0.79581 -0.40307,0.79065 -0.40307,2.38228 0,1.58646 0.40307,2.38227 0.40824,0.79065 1.21439,0.79065 0.81132,0 1.2144,-0.79065 0.40824,-0.79581 0.40824,-2.38227 0,-1.59163 -0.40824,-2.38228 -0.40308,-0.79581 -1.2144,-0.79581 z m 0,-0.82682 q 1.29708,0 1.9792,1.02835 0.6873,1.02319 0.6873,2.97656 0,1.94819 -0.6873,2.97655 -0.68212,1.02319 -1.9792,1.02319 -1.29707,0 -1.98437,-1.02319 -0.68212,-1.02836 -0.68212,-2.97655 0,-1.95337 0.68212,-2.97656 0.6873,-1.02835 1.98437,-1.02835 z"
         style="stroke-width:0.116178"
         id="path1036" />
      <path
         d="m 312.40435,125.42897 q -0.80615,0 -1.21439,0.79581 -0.40308,0.79065 -0.40308,2.38228 0,1.58646 0.40308,2.38227 0.40824,0.79065 1.21439,0.79065 0.81132,0 1.21439,-0.79065 0.40825,-0.79581 0.40825,-2.38227 0,-1.59163 -0.40825,-2.38228 -0.40307,-0.79581 -1.21439,-0.79581 z m 0,-0.82682 q 1.29708,0 1.9792,1.02835 0.6873,1.02319 0.6873,2.97656 0,1.94819 -0.6873,2.97655 -0.68212,1.02319 -1.9792,1.02319 -1.29707,0 -1.98437,-1.02319 -0.68212,-1.02836 -0.68212,-2.97655 0,-1.95337 0.68212,-2.97656 0.6873,-1.02835 1.98437,-1.02835 z"
         style="stroke-width:0.116178"
         id="path1038" />
      <path
         d="m 319.13777,125.42897 q -0.80615,0 -1.21439,0.79581 -0.40308,0.79065 -0.40308,2.38228 0,1.58646 0.40308,2.38227 0.40824,0.79065 1.21439,0.79065 0.81132,0 1.21439,-0.79065 0.40824,-0.79581 0.40824,-2.38227 0,-1.59163 -0.40824,-2.38228 -0.40307,-0.79581 -1.21439,-0.79581 z m 0,-0.82682 q 1.29707,0 1.9792,1.02835 0.68729,1.02319 0.68729,2.97656 0,1.94819 -0.68729,2.97655 -0.68213,1.02319 -1.9792,1.02319 -1.29708,0 -1.98437,-1.02319 -0.68213,-1.02836 -0.68213,-2.97655 0,-1.95337 0.68213,-2.97656 0.68729,-1.02835 1.98437,-1.02835 z"
         style="stroke-width:0.116178"
         id="path1040" />
      <path
         d="m 325.87119,125.42897 q -0.80615,0 -1.2144,0.79581 -0.40307,0.79065 -0.40307,2.38228 0,1.58646 0.40307,2.38227 0.40825,0.79065 1.2144,0.79065 0.81131,0 1.21439,-0.79065 0.40824,-0.79581 0.40824,-2.38227 0,-1.59163 -0.40824,-2.38228 -0.40308,-0.79581 -1.21439,-0.79581 z m 0,-0.82682 q 1.29707,0 1.9792,1.02835 0.68729,1.02319 0.68729,2.97656 0,1.94819 -0.68729,2.97655 -0.68213,1.02319 -1.9792,1.02319 -1.29708,0 -1.98437,-1.02319 -0.68213,-1.02836 -0.68213,-2.97655 0,-1.95337 0.68213,-2.97656 0.68729,-1.02835 1.98437,-1.02835 z"
         style="stroke-width:0.116178"
         id="path1042" />
    </g>
    <g
       aria-label="01110000"
       id="text975"
       style="font-style:normal;font-weight:normal;font-size:10.5833px;line-height:1.25;font-family:sans-serif;fill:#000000;fill-opacity:1;stroke:none;stroke-width:0.116178"
       transform="matrix(2.2773949,0,0,2.2773949,-369.06937,-97.329219)"
       inkscape:export-xdpi="57.272118"
       inkscape:export-ydpi="57.272118">
      <path
         d="m 278.92052,140.73451 q -0.80615,0 -1.21439,0.79581 -0.40308,0.79065 -0.40308,2.38228 0,1.58646 0.40308,2.38228 0.40824,0.79064 1.21439,0.79064 0.81132,0 1.21439,-0.79064 0.40825,-0.79582 0.40825,-2.38228 0,-1.59163 -0.40825,-2.38228 -0.40307,-0.79581 -1.21439,-0.79581 z m 0,-0.82682 q 1.29708,0 1.9792,1.02836 0.6873,1.02319 0.6873,2.97655 0,1.9482 -0.6873,2.97655 -0.68212,1.02319 -1.9792,1.02319 -1.29707,0 -1.98437,-1.02319 -0.68212,-1.02835 -0.68212,-2.97655 0,-1.95336 0.68212,-2.97655 0.6873,-1.02836 1.98437,-1.02836 z"
         style="stroke-width:0.116178"
         id="path1045" />
      <path
         d="m 283.60239,146.88399 h 1.70532 v -5.88593 l -1.85518,0.37207 v -0.95085 l 1.84484,-0.37207 h 1.04386 v 6.83678 h 1.70532 v 0.87849 h -4.44416 z"
         style="stroke-width:0.116178"
         id="path1047" />
      <path
         d="m 290.33581,146.88399 h 1.70532 v -5.88593 l -1.85518,0.37207 v -0.95085 l 1.84484,-0.37207 h 1.04386 v 6.83678 h 1.70532 v 0.87849 h -4.44416 z"
         style="stroke-width:0.116178"
         id="path1049" />
      <path
         d="m 297.06923,146.88399 h 1.70531 v -5.88593 l -1.85517,0.37207 v -0.95085 l 1.84484,-0.37207 h 1.04386 v 6.83678 h 1.70532 v 0.87849 h -4.44416 z"
         style="stroke-width:0.116178"
         id="path1051" />
      <path
         d="m 305.85419,140.73451 q -0.80615,0 -1.21439,0.79581 -0.40308,0.79065 -0.40308,2.38228 0,1.58646 0.40308,2.38228 0.40824,0.79064 1.21439,0.79064 0.81132,0 1.21439,-0.79064 0.40825,-0.79582 0.40825,-2.38228 0,-1.59163 -0.40825,-2.38228 -0.40307,-0.79581 -1.21439,-0.79581 z m 0,-0.82682 q 1.29708,0 1.9792,1.02836 0.6873,1.02319 0.6873,2.97655 0,1.9482 -0.6873,2.97655 -0.68212,1.02319 -1.9792,1.02319 -1.29707,0 -1.98437,-1.02319 -0.68212,-1.02835 -0.68212,-2.97655 0,-1.95336 0.68212,-2.97655 0.6873,-1.02836 1.98437,-1.02836 z"
         style="stroke-width:0.116178"
         id="path1053" />
      <path
         d="m 312.58761,140.73451 q -0.80615,0 -1.21439,0.79581 -0.40308,0.79065 -0.40308,2.38228 0,1.58646 0.40308,2.38228 0.40824,0.79064 1.21439,0.79064 0.81132,0 1.21439,-0.79064 0.40824,-0.79582 0.40824,-2.38228 0,-1.59163 -0.40824,-2.38228 -0.40307,-0.79581 -1.21439,-0.79581 z m 0,-0.82682 q 1.29707,0 1.9792,1.02836 0.68729,1.02319 0.68729,2.97655 0,1.9482 -0.68729,2.97655 -0.68213,1.02319 -1.9792,1.02319 -1.29708,0 -1.98437,-1.02319 -0.68213,-1.02835 -0.68213,-2.97655 0,-1.95336 0.68213,-2.97655 0.68729,-1.02836 1.98437,-1.02836 z"
         style="stroke-width:0.116178"
         id="path1055" />
      <path
         d="m 319.32103,140.73451 q -0.80615,0 -1.2144,0.79581 -0.40307,0.79065 -0.40307,2.38228 0,1.58646 0.40307,2.38228 0.40825,0.79064 1.2144,0.79064 0.81131,0 1.21439,-0.79064 0.40824,-0.79582 0.40824,-2.38228 0,-1.59163 -0.40824,-2.38228 -0.40308,-0.79581 -1.21439,-0.79581 z m 0,-0.82682 q 1.29707,0 1.9792,1.02836 0.68729,1.02319 0.68729,2.97655 0,1.9482 -0.68729,2.97655 -0.68213,1.02319 -1.9792,1.02319 -1.29708,0 -1.98437,-1.02319 -0.68213,-1.02835 -0.68213,-2.97655 0,-1.95336 0.68213,-2.97655 0.68729,-1.02836 1.98437,-1.02836 z"
         style="stroke-width:0.116178"
         id="path1057" />
      <path
         d="m 326.05444,140.73451 q -0.80615,0 -1.21439,0.79581 -0.40307,0.79065 -0.40307,2.38228 0,1.58646 0.40307,2.38228 0.40824,0.79064 1.21439,0.79064 0.81132,0 1.2144,-0.79064 0.40824,-0.79582 0.40824,-2.38228 0,-1.59163 -0.40824,-2.38228 -0.40308,-0.79581 -1.2144,-0.79581 z m 0,-0.82682 q 1.29708,0 1.97921,1.02836 0.68729,1.02319 0.68729,2.97655 0,1.9482 -0.68729,2.97655 -0.68213,1.02319 -1.97921,1.02319 -1.29707,0 -1.98436,-1.02319 -0.68213,-1.02835 -0.68213,-2.97655 0,-1.95336 0.68213,-2.97655 0.68729,-1.02836 1.98436,-1.02836 z"
         style="stroke-width:0.116178"
         id="path1059" />
    </g>
    <path
       style="fill:none;stroke:#000000;stroke-width:1.32292;stroke-linecap:round;stroke-linejoin:round;stroke-miterlimit:4;stroke-dasharray:none;stroke-opacity:1"
       d="M 243.12669,56.664298 V 262.47295 Z"
       id="path1082"
       inkscape:export-xdpi="57.272118"
       inkscape:export-ydpi="57.272118" />
  </g>
</svg>
